<svg width="24" height="24" viewBox="0 0 24 24" fill="none" xmlns="http://www.w3.org/2000/svg">
<path d="M21.3675 11.062C20.4125 15.958 15.3935 19.397 13.2805 20.649C12.8845 20.882 12.4415 21 11.9985 21C11.5555 21 11.1125 20.883 10.7165 20.649C8.60248 19.396 3.58348 15.958 2.62848 11.062C2.22948 9.015 2.77248 6.845 4.08148 5.255C5.27948 3.801 6.94448 3 8.77048 3C9.91948 3 11.0285 3.291 11.9985 3.844C12.9685 3.291 14.0775 3 15.2265 3C17.0525 3 18.7175 3.801 19.9155 5.255C21.2245 6.845 21.7685 9.015 21.3685 11.062H21.3675Z" fill="#41416E"/>
</svg>
