<?xml version="1.0"?>
<svg width="12" height="12" xmlns="http://www.w3.org/2000/svg" xmlns:svg="http://www.w3.org/2000/svg">
 <g class="layer">
  <title>Layer 1</title>
  <path d="m11.39,5.73l-1.66,-1.66c0.67,-0.15 1.17,-0.75 1.17,-1.47c0,-0.83 -0.68,-1.51 -1.51,-1.51c-0.72,0 -1.31,0.5 -1.47,1.17l-1.65,-1.65a0.37,0.37 0 0 0 -0.53,0l-1.67,1.66c0.67,0.15 1.17,0.75 1.17,1.47c0,0.83 -0.68,1.51 -1.51,1.51c-0.72,0 -1.31,-0.5 -1.47,-1.17l-1.65,1.65c-0.15,0.15 -0.15,0.39 0,0.53l1.66,1.66c-0.67,0.16 -1.17,0.76 -1.17,1.47c0,0.83 0.68,1.51 1.51,1.51c0.72,0 1.31,-0.5 1.47,-1.17l1.66,1.66c0.15,0.15 0.39,0.15 0.53,0l1.66,-1.66c-0.67,-0.15 -1.18,-0.75 -1.18,-1.47c0,-0.83 0.68,-1.51 1.51,-1.51c0.72,0 1.31,0.5 1.47,1.17l1.66,-1.66c0.15,-0.14 0.15,-0.38 0,-0.53z" fill="#000000" id="svg_1" stroke="currentColor" stroke-linejoin="round"/>
 </g>
</svg>